<svg width="1747.475146484375px" height="298.4px" xmlns="http://www.w3.org/2000/svg" viewBox="-623.7375732421875 -74.19999999999999 1747.475146484375 298.4" style="background: rgba(0, 0, 0, 0);" preserveAspectRatio="xMidYMid"><defs><filter id="editing-hole" x="-100%" y="-100%" width="300%" height="300%"><feFlood flood-color="#000" result="black"></feFlood><feMorphology operator="dilate" radius="2" in="SourceGraphic" result="erode"></feMorphology><feGaussianBlur in="erode" stdDeviation="4" result="blur"></feGaussianBlur><feOffset in="blur" dx="2" dy="2" result="offset"></feOffset><feComposite operator="atop" in="offset" in2="black" result="merge"></feComposite><feComposite operator="in" in="merge" in2="SourceGraphic" result="inner-shadow"></feComposite></filter></defs><g filter="url(#editing-hole)"><g transform="translate(-387.1249942779541, 126.37500190734863)"><path d="M85.50 6L85.50 6Q72.45-14.25 60.07-32.63L60.07-32.63L60.07-32.63Q47.70-51 39.75-62.32L39.75-62.32L39.75-62.32Q31.80-73.65 29.70-76.65L29.70-76.65L28.95-76.65L28.20-12.60L28.20-12.60Q28.20-9.30 29.25-7.95L29.25-7.95L29.25-7.95Q30.30-6.60 32.85-6.60L32.85-6.60L40.50-6.75L40.80-6.15L39.45 0.60L39.45 0.60Q37.80 0.45 32.70 0.22L32.70 0.22L32.70 0.22Q27.60 0 23.55 0L23.55 0L23.55 0Q19.80 0 15.38 0.53L15.38 0.53L15.38 0.53Q10.95 1.05 9.60 1.20L9.60 1.20L10.35-5.70L10.35-5.70Q15-6.30 17.25-8.47L17.25-8.47L17.25-8.47Q19.50-10.65 19.65-15.15L19.65-15.15L21.60-80.70L21.60-80.70Q21.60-85.35 18.82-87.30L18.82-87.30L18.82-87.30Q16.05-89.25 8.55-90L8.55-90L8.10-90.75L9.30-96.30L9.30-96.30Q10.65-96.15 15.15-95.85L15.15-95.85L15.15-95.85Q19.65-95.55 22.20-95.55L22.20-95.55L22.20-95.55Q25.35-95.55 28.35-95.77L28.35-95.77L28.35-95.77Q31.35-96 32.25-96.15L32.25-96.15L32.25-96.15Q43.35-78.90 54.52-62.40L54.52-62.40L54.52-62.40Q65.70-45.90 73.20-35.25L73.20-35.25L73.20-35.25Q80.70-24.60 82.65-21.75L82.65-21.75L83.40-21.75L83.40-82.50L83.40-82.50Q83.40-88.95 78.45-88.95L78.45-88.95L72.75-88.80L72.45-89.40L73.80-96.15L73.80-96.15Q75.30-96 79.50-95.77L79.50-95.77L79.50-95.77Q83.70-95.55 88.05-95.55L88.05-95.55L88.05-95.55Q91.95-95.55 96.67-96.08L96.67-96.08L96.67-96.08Q101.40-96.60 102.90-96.75L102.90-96.75L102.15-89.85L102.15-89.85Q96.90-89.10 94.50-86.92L94.50-86.92L94.50-86.92Q92.10-84.75 91.95-80.40L91.95-80.40L89.85 3.90L85.50 6ZM150.45 1.05L150 0.30L150.45-5.10L150.45-5.10Q156.75-5.55 158.92-6.45L158.92-6.45L158.92-6.45Q161.10-7.35 161.10-9.45L161.10-9.45L161.10-9.45Q161.10-11.85 160.05-14.55L160.05-14.55L156.45-26.10L156.45-26.10Q153.45-26.25 144-26.25L144-26.25L144-26.25Q139.65-26.25 131.10-25.35L131.10-25.35L126.90-14.25L126.90-14.25Q125.85-10.80 125.85-10.05L125.85-10.05L125.85-10.05Q125.85-7.65 127.50-6.60L127.50-6.60L127.50-6.60Q129.15-5.55 132.90-5.55L132.90-5.55L139.35-5.55L139.80-4.95L138.90 0.75L138.90 0.75Q137.40 0.60 132.07 0.30L132.07 0.30L132.07 0.30Q126.75 0 121.65 0L121.65 0L121.65 0Q116.85 0 113.02 0.15L113.02 0.15L113.02 0.15Q109.20 0.30 107.85 0.30L107.85 0.30L108.75-5.85L108.75-5.85Q112.05-6.30 114-8.17L114-8.17L114-8.17Q115.95-10.05 117.90-14.55L117.90-14.55L141.45-74.10L152.10-76.05L153.15-75.90L153.15-75.90Q153.15-75.30 159.97-52.20L159.97-52.20L159.97-52.20Q166.80-29.10 172.20-13.95L172.20-13.95L172.20-13.95Q173.70-9.60 176.02-7.88L176.02-7.88L176.02-7.88Q178.35-6.15 183.45-5.70L183.45-5.70L183.75-5.10L183 0.30L183 0.30Q181.50 0.30 177.45 0.15L177.45 0.15L177.45 0.15Q173.40 0 169.35 0L169.35 0L169.35 0Q163.20 0 157.65 0.45L157.65 0.45L157.65 0.45Q152.10 0.90 150.45 1.05L150.45 1.05ZM133.50-32.40L143.70-32.40L143.70-32.40Q148.95-32.40 154.65-33L154.65-33L145.50-62.10L144.45-62.10L133.50-32.40ZM200.85 0.60L201.90-5.40L201.90-5.40Q207.90-5.85 210.38-6.90L210.38-6.90L210.38-6.90Q212.85-7.95 213.52-10.42L213.52-10.42L213.52-10.42Q214.20-12.90 214.20-19.05L214.20-19.05L214.20-68.70L214.20-68.70Q204.75-68.40 201.45-67.65L201.45-67.65L201.45-67.65Q198.15-66.90 196.57-64.13L196.57-64.13L196.57-64.13Q195-61.35 193.95-53.70L193.95-53.70L186.90-53.25L186.90-53.25Q187.20-55.20 187.88-61.88L187.88-61.88L187.88-61.88Q188.55-68.55 188.70-75L188.70-75L189.90-76.05L200.55-74.85L238.80-74.85L249.75-76.05L250.95-75L250.95-75Q251.10-68.40 251.70-61.95L251.70-61.95L251.70-61.95Q252.30-55.50 252.60-53.70L252.60-53.70L245.70-53.25L245.70-53.25Q244.50-61.05 242.92-63.97L242.92-63.97L242.92-63.97Q241.35-66.90 238.27-67.65L238.27-67.65L238.27-67.65Q235.20-68.40 226.50-68.70L226.50-68.70L226.50-68.70Q225.75-61.50 225.15-44.77L225.15-44.77L225.15-44.77Q224.55-28.05 224.55-13.95L224.55-13.95L224.55-13.95Q224.55-9.60 226.20-7.80L226.20-7.80L226.20-7.80Q227.85-6 231.60-6L231.60-6L231.60-6Q234.30-6 236.02-6.15L236.02-6.15L236.02-6.15Q237.75-6.30 238.20-6.30L238.20-6.30L238.65-5.85L237.60 0.45L237.60 0.45Q235.50 0.45 229.80 0.22L229.80 0.22L229.80 0.22Q224.10 0 218.70 0L218.70 0L218.70 0Q213.30 0 208.05 0.22L208.05 0.22L208.05 0.22Q202.80 0.45 200.85 0.60L200.85 0.60ZM263.55 1.35L264.30-4.80L264.30-4.80Q269.85-5.85 271.80-7.88L271.80-7.88L271.80-7.88Q273.75-9.90 273.75-14.85L273.75-14.85L273.90-62.55L273.90-62.55Q273.90-66.30 273-67.58L273-67.58L273-67.58Q272.10-68.85 269.40-68.85L269.40-68.85L265.35-68.70L264.90-69.30L265.80-75L265.80-75Q267.30-75 271.43-74.85L271.43-74.85L271.43-74.85Q275.55-74.70 279.75-74.70L279.75-74.70L279.75-74.70Q283.20-74.70 288-75.15L288-75.15L288-75.15Q292.80-75.60 294.30-75.75L294.30-75.75L293.70-69.60L293.70-69.60Q290.10-69 288.60-68.17L288.60-68.17L288.60-68.17Q287.10-67.35 286.57-65.63L286.57-65.63L286.57-65.63Q286.05-63.90 285.75-59.70L285.75-59.70L285-41.55L304.50-41.40L304.50-41.40Q312.45-41.40 321.75-42.45L321.75-42.45L321.90-62.55L321.90-62.55Q321.90-66.30 321-67.58L321-67.58L321-67.58Q320.10-68.85 317.40-68.85L317.40-68.85L313.20-68.70L312.90-69.30L313.80-75L313.80-75Q315.15-74.85 319.05-74.77L319.05-74.77L319.05-74.77Q322.95-74.70 326.70-74.70L326.70-74.70L326.70-74.70Q330.30-74.70 335.47-75.15L335.47-75.15L335.47-75.15Q340.65-75.60 342.30-75.75L342.30-75.75L341.85-69.60L341.85-69.60Q337.20-69 335.70-67.72L335.70-67.72L335.70-67.72Q334.20-66.45 334.05-63L334.05-63L334.05-63Q333.45-51.15 332.92-36.52L332.92-36.52L332.92-36.52Q332.40-21.90 332.40-13.95L332.40-13.95L332.40-13.95Q332.40-9.15 333.45-7.57L333.45-7.57L333.45-7.57Q334.50-6 337.65-6L337.65-6L337.65-6Q339.45-6 340.95-6.15L340.95-6.15L340.95-6.15Q342.45-6.30 342.90-6.30L342.90-6.30L343.35-5.70L342.15 0.30L342.15 0.30Q340.50 0.30 335.92 0.15L335.92 0.15L335.92 0.15Q331.35 0 326.40 0L326.40 0L311.40 0.15L312.60-5.85L312.60-5.85Q316.50-5.85 318.38-6.83L318.38-6.83L318.38-6.83Q320.25-7.80 321-10.28L321-10.28L321-10.28Q321.75-12.75 321.75-17.70L321.75-17.70L321.75-34.50L304.50-34.65L304.50-34.65Q302.10-34.65 294.75-34.13L294.75-34.13L294.75-34.13Q287.40-33.60 284.85-33.45L284.85-33.45L284.40-13.95L284.40-13.95Q284.40-9.15 285.45-7.50L285.45-7.50L285.45-7.50Q286.50-5.85 289.65-5.85L289.65-5.85L289.65-5.85Q291.45-5.85 292.95-6L292.95-6L292.95-6Q294.45-6.15 294.90-6.30L294.90-6.30L295.20-5.70L294.15 0.30L294.15 0.30Q292.95 0.30 289.57 0.15L289.57 0.15L289.57 0.15Q286.20 0 282.45 0L282.45 0L282.45 0Q276.90 0 270.30 0.45L270.30 0.45L270.30 0.45Q263.70 0.90 263.55 1.35L263.55 1.35ZM393.90 1.05L393.45 0.30L393.90-5.10L393.90-5.10Q400.20-5.55 402.37-6.45L402.37-6.45L402.37-6.45Q404.55-7.35 404.55-9.45L404.55-9.45L404.55-9.45Q404.55-11.85 403.50-14.55L403.50-14.55L399.90-26.10L399.90-26.10Q396.90-26.25 387.45-26.25L387.45-26.25L387.45-26.25Q383.10-26.25 374.55-25.35L374.55-25.35L370.35-14.25L370.35-14.25Q369.30-10.80 369.30-10.05L369.30-10.05L369.30-10.05Q369.30-7.65 370.95-6.60L370.95-6.60L370.95-6.60Q372.60-5.55 376.35-5.55L376.35-5.55L382.80-5.55L383.25-4.95L382.35 0.75L382.35 0.75Q380.85 0.60 375.52 0.30L375.52 0.30L375.52 0.30Q370.20 0 365.10 0L365.10 0L365.10 0Q360.30 0 356.47 0.15L356.47 0.15L356.47 0.15Q352.65 0.30 351.30 0.30L351.30 0.30L352.20-5.85L352.20-5.85Q355.50-6.30 357.45-8.17L357.45-8.17L357.45-8.17Q359.40-10.05 361.35-14.55L361.35-14.55L384.90-74.10L395.55-76.05L396.60-75.90L396.60-75.90Q396.60-75.30 403.42-52.20L403.42-52.20L403.42-52.20Q410.25-29.10 415.65-13.95L415.65-13.95L415.65-13.95Q417.15-9.60 419.47-7.88L419.47-7.88L419.47-7.88Q421.80-6.15 426.90-5.70L426.90-5.70L427.20-5.10L426.45 0.30L426.45 0.30Q424.95 0.30 420.90 0.15L420.90 0.15L420.90 0.15Q416.85 0 412.80 0L412.80 0L412.80 0Q406.65 0 401.10 0.45L401.10 0.45L401.10 0.45Q395.55 0.90 393.90 1.05L393.90 1.05ZM376.95-32.40L387.15-32.40L387.15-32.40Q392.40-32.40 398.10-33L398.10-33L388.95-62.10L387.90-62.10L376.95-32.40ZM497.10-20.40L496.95-63.75L496.95-63.75Q496.95-68.70 492.90-68.70L492.90-68.70L488.40-68.70L488.10-69.30L489.15-75.15L489.15-75.15Q490.50-75 494.25-74.85L494.25-74.85L494.25-74.85Q498.00-74.70 501.90-74.70L501.90-74.70L501.90-74.70Q505.20-74.70 509.32-75.08L509.32-75.08L509.32-75.08Q513.45-75.45 514.65-75.60L514.65-75.60L514.05-69.45L514.05-69.45Q509.70-68.85 507.82-67.13L507.82-67.13L507.82-67.13Q505.95-65.40 505.80-61.95L505.80-61.95L504.00 2.55L498.15 4.20L498.15 4.20Q483.90-16.65 469.35-36.60L469.35-36.60L469.35-36.60Q454.80-56.55 454.80-56.25L454.80-56.25L454.05-56.25L453.60-10.80L453.60-10.80Q453.60-7.95 454.50-6.90L454.50-6.90L454.50-6.90Q455.40-5.85 457.50-5.85L457.50-5.85L463.50-6L463.95-5.55L462.75 0.45L462.75 0.45Q461.40 0.30 457.42 0.15L457.42 0.15L457.42 0.15Q453.45 0 449.10 0L449.10 0L449.10 0Q445.65 0 441.75 0.38L441.75 0.38L441.75 0.38Q437.85 0.75 436.65 0.90L436.65 0.90L437.40-5.25L437.40-5.25Q441.15-5.70 442.95-7.42L442.95-7.42L442.95-7.42Q444.75-9.15 444.90-12.60L444.90-12.60L446.55-62.10L446.55-62.10Q446.55-65.85 444.37-67.27L444.37-67.27L444.37-67.27Q442.20-68.70 436.05-69.45L436.05-69.45L435.45-70.20L436.50-75.30L436.50-75.30Q437.70-75.15 441.07-74.92L441.07-74.92L441.07-74.92Q444.45-74.70 447.90-74.70L447.90-74.70L447.90-74.70Q451.20-74.70 453.75-74.85L453.75-74.85L453.75-74.85Q456.30-75 457.05-75.15L457.05-75.15L457.05-75.15Q469.20-57.30 482.77-38.70L482.77-38.70L482.77-38.70Q496.35-20.10 496.35-20.40L496.35-20.40L497.10-20.40ZM527.85 1.35L528.60-4.80L528.60-4.80Q534.30-5.85 536.25-7.88L536.25-7.88L536.25-7.88Q538.20-9.90 538.20-14.85L538.20-14.85L538.35-62.55L538.35-62.55Q538.35-66.30 537.45-67.58L537.45-67.58L537.45-67.58Q536.55-68.85 533.85-68.85L533.85-68.85L528.90-68.70L528.60-69.30L529.35-75L529.35-75Q530.25-75 534.23-74.85L534.23-74.85L534.23-74.85Q538.20-74.70 544.65-74.70L544.65-74.70L544.65-74.70Q548.10-74.70 553.13-75.15L553.13-75.15L553.13-75.15Q558.15-75.60 559.65-75.75L559.65-75.75L559.05-69.60L559.05-69.60Q554.10-69 552.45-67.72L552.45-67.72L552.45-67.72Q550.80-66.45 550.50-63L550.50-63L550.50-63Q549.90-51 549.38-36.45L549.38-36.45L549.38-36.45Q548.85-21.90 548.85-13.95L548.85-13.95L548.85-13.95Q548.85-9.15 549.90-7.50L549.90-7.50L549.90-7.50Q550.95-5.85 554.10-5.85L554.10-5.85L554.10-5.85Q556.20-5.85 557.92-6L557.92-6L557.92-6Q559.65-6.15 560.25-6.30L560.25-6.30L560.55-5.70L559.50 0.30L559.50 0.30Q557.70 0.30 552.75 0.15L552.75 0.15L552.75 0.15Q547.80 0 542.85 0L542.85 0L542.85 0Q538.80 0 534.07 0.53L534.07 0.53L534.07 0.53Q529.35 1.05 527.85 1.35L527.85 1.35ZM575.85 1.20L576.60-5.10L576.60-5.10Q582.15-5.70 584.10-7.80L584.10-7.80L584.10-7.80Q586.05-9.90 586.05-15L586.05-15L586.20-62.55L586.20-62.55Q586.20-66.30 585.30-67.58L585.30-67.58L585.30-67.58Q584.40-68.85 581.70-68.85L581.70-68.85L577.65-68.70L577.35-69.30L578.25-75L578.25-75Q580.05-75 585.30-74.85L585.30-74.85L585.30-74.85Q590.55-74.70 596.70-74.70L596.70-74.70L596.70-74.70Q621.75-74.70 633.75-76.05L633.75-76.05L634.20-75.30L634.20-75.30Q633.90-73.65 632.85-67.80L632.85-67.80L632.85-67.80Q631.80-61.95 631.35-55.20L631.35-55.20L624.15-54.60L624.15-54.60Q624.15-55.20 624.30-56.63L624.30-56.63L624.30-56.63Q624.45-58.05 624.45-59.55L624.45-59.55L624.45-59.55Q624.45-63.45 623.33-65.02L623.33-65.02L623.33-65.02Q622.20-66.60 618.67-67.13L618.67-67.13L618.67-67.13Q615.15-67.65 606.45-67.65L606.45-67.65L606.45-67.65Q602.40-67.65 600.90-67.42L600.90-67.42L600.90-67.42Q599.40-67.20 598.95-66.38L598.95-66.38L598.95-66.38Q598.50-65.55 598.35-63.30L598.35-63.30L597.45-42L609.75-41.85L609.75-41.85Q612.45-41.85 617.70-42.38L617.70-42.38L617.70-42.38Q622.95-42.90 624.60-43.05L624.60-43.05L625.20-42.30L623.40-34.50L623.40-34.50Q621.75-34.50 616.88-34.65L616.88-34.65L616.88-34.65Q612-34.80 606.60-34.80L606.60-34.80L606.60-34.80Q602.40-34.80 597.15-34.05L597.15-34.05L597.15-34.05Q596.70-22.65 596.70-13.50L596.70-13.50L596.70-13.50Q596.70-10.05 597.23-8.70L597.23-8.70L597.23-8.70Q597.75-7.35 599.63-6.90L599.63-6.90L599.63-6.90Q601.50-6.45 605.85-6.45L605.85-6.45L605.85-6.45Q615.60-6.45 619.80-7.35L619.80-7.35L619.80-7.35Q624-8.25 625.73-11.03L625.73-11.03L625.73-11.03Q627.45-13.80 628.50-20.55L628.50-20.55L635.10-21.15L635.70-20.40L635.70-20.40Q635.25-18.75 634.13-12.67L634.13-12.67L634.13-12.67Q633-6.60 632.40 0L632.40 0L631.50 0.75L631.50 0.75Q627.45 0.60 614.70 0.30L614.70 0.30L614.70 0.30Q601.95 0 594 0L594 0L594 0Q587.85 0 582.60 0.53L582.60 0.53L582.60 0.53Q577.35 1.05 575.85 1.20L575.85 1.20ZM653.10 1.20L654-5.10L654-5.10Q658.80-5.85 660.53-7.88L660.53-7.88L660.53-7.88Q662.25-9.90 662.25-15L662.25-15L662.40-62.55L662.40-62.55Q662.40-66.30 661.50-67.58L661.50-67.58L661.50-67.58Q660.60-68.85 657.90-68.85L657.90-68.85L653.85-68.70L653.40-69.30L654.30-75L654.30-75Q655.05-75 658.80-74.85L658.80-74.85L658.80-74.85Q662.55-74.70 668.85-74.70L668.85-74.70L668.85-74.70Q672.15-74.70 677.03-75.15L677.03-75.15L677.03-75.15Q681.90-75.60 683.40-75.75L683.40-75.75L682.80-69.45L682.80-69.45Q678.75-69 677.10-68.02L677.10-68.02L677.10-68.02Q675.45-67.05 675.15-65.55L675.15-65.55L675.15-65.55Q674.85-64.05 674.40-59.40L674.40-59.40L674.40-59.40Q672.90-39.30 672.90-14.85L672.90-14.85L672.90-14.85Q672.90-11.10 673.58-9.38L673.58-9.38L673.58-9.38Q674.25-7.65 676.28-7.05L676.28-7.05L676.28-7.05Q678.30-6.45 682.65-6.45L682.65-6.45L682.65-6.45Q689.85-6.45 693.23-7.65L693.23-7.65L693.23-7.65Q696.60-8.85 698.33-12.38L698.33-12.38L698.33-12.38Q700.05-15.90 701.40-23.55L701.40-23.55L708-24.30L708.45-23.40L708.45-23.40Q708.15-21.45 707.03-14.47L707.03-14.47L707.03-14.47Q705.90-7.50 705 0.15L705 0.15L704.25 1.05L704.25 1.05Q700.80 0.90 689.63 0.45L689.63 0.45L689.63 0.45Q678.45 0 670.80 0L670.80 0L670.80 0Q664.80 0 659.63 0.53L659.63 0.53L659.63 0.53Q654.45 1.05 653.10 1.20L653.10 1.20ZM825.45 6L825.45 6Q812.40-14.25 800.03-32.63L800.03-32.63L800.03-32.63Q787.65-51 779.70-62.32L779.70-62.32L779.70-62.32Q771.75-73.65 769.65-76.65L769.65-76.65L768.90-76.65L768.15-12.60L768.15-12.60Q768.15-9.30 769.20-7.95L769.20-7.95L769.20-7.95Q770.25-6.60 772.80-6.60L772.80-6.60L780.45-6.75L780.75-6.15L779.40 0.60L779.40 0.60Q777.75 0.45 772.65 0.22L772.65 0.22L772.65 0.22Q767.55 0 763.50 0L763.50 0L763.50 0Q759.75 0 755.33 0.53L755.33 0.53L755.33 0.53Q750.90 1.05 749.55 1.20L749.55 1.20L750.30-5.70L750.30-5.70Q754.95-6.30 757.20-8.47L757.20-8.47L757.20-8.47Q759.45-10.65 759.60-15.15L759.60-15.15L761.55-80.70L761.55-80.70Q761.55-85.35 758.78-87.30L758.78-87.30L758.78-87.30Q756-89.25 748.50-90L748.50-90L748.05-90.75L749.25-96.30L749.25-96.30Q750.60-96.15 755.10-95.85L755.10-95.85L755.10-95.85Q759.60-95.55 762.15-95.55L762.15-95.55L762.15-95.55Q765.30-95.55 768.30-95.77L768.30-95.77L768.30-95.77Q771.30-96 772.20-96.15L772.20-96.15L772.20-96.15Q783.30-78.90 794.48-62.40L794.48-62.40L794.48-62.40Q805.65-45.90 813.15-35.25L813.15-35.25L813.15-35.25Q820.65-24.60 822.60-21.75L822.60-21.75L823.35-21.75L823.35-82.50L823.35-82.50Q823.35-88.95 818.40-88.95L818.40-88.95L812.70-88.80L812.40-89.40L813.75-96.15L813.75-96.15Q815.25-96 819.45-95.77L819.45-95.77L819.45-95.77Q823.65-95.55 828-95.55L828-95.55L828-95.55Q831.90-95.55 836.63-96.08L836.63-96.08L836.63-96.08Q841.35-96.60 842.85-96.75L842.85-96.75L842.10-89.85L842.10-89.85Q836.85-89.10 834.45-86.92L834.45-86.92L834.45-86.92Q832.05-84.75 831.90-80.40L831.90-80.40L829.80 3.90L825.45 6ZM855.75 1.35L856.50-4.80L856.50-4.80Q862.20-5.85 864.15-7.88L864.15-7.88L864.15-7.88Q866.10-9.90 866.10-14.85L866.10-14.85L866.25-62.55L866.25-62.55Q866.25-66.30 865.35-67.58L865.35-67.58L865.35-67.58Q864.45-68.85 861.75-68.85L861.75-68.85L856.80-68.70L856.50-69.30L857.25-75L857.25-75Q858.15-75 862.13-74.85L862.13-74.85L862.13-74.85Q866.10-74.70 872.55-74.70L872.55-74.70L872.55-74.70Q876.00-74.70 881.03-75.15L881.03-75.15L881.03-75.15Q886.05-75.60 887.55-75.75L887.55-75.75L886.95-69.60L886.95-69.60Q882.00-69 880.35-67.72L880.35-67.72L880.35-67.72Q878.70-66.45 878.40-63L878.40-63L878.40-63Q877.80-51 877.28-36.45L877.28-36.45L877.28-36.45Q876.75-21.90 876.75-13.95L876.75-13.95L876.75-13.95Q876.75-9.15 877.80-7.50L877.80-7.50L877.80-7.50Q878.85-5.85 882.00-5.85L882.00-5.85L882.00-5.85Q884.10-5.85 885.83-6L885.83-6L885.83-6Q887.55-6.15 888.15-6.30L888.15-6.30L888.45-5.70L887.40 0.30L887.40 0.30Q885.60 0.30 880.65 0.15L880.65 0.15L880.65 0.15Q875.70 0 870.75 0L870.75 0L870.75 0Q866.70 0 861.98 0.53L861.98 0.53L861.98 0.53Q857.25 1.05 855.75 1.35L855.75 1.35ZM938.55 1.35L938.55 1.35Q921.60 1.35 911.70-8.40L911.70-8.40L911.70-8.40Q901.80-18.15 901.80-34.95L901.80-34.95L901.80-34.95Q901.80-46.80 907.28-56.17L907.28-56.17L907.28-56.17Q912.75-65.55 922.58-70.80L922.58-70.80L922.58-70.80Q932.40-76.05 944.85-76.05L944.85-76.05L944.85-76.05Q949.35-76.05 954.23-75.45L954.23-75.45L954.23-75.45Q959.10-74.85 962.48-74.10L962.48-74.10L962.48-74.10Q965.85-73.35 966.75-73.20L966.75-73.20L967.35-72.30L967.35-72.30Q967.20-71.55 966.60-68.77L966.60-68.77L966.60-68.77Q966.00-66 965.25-61.50L965.25-61.50L965.25-61.50Q964.50-57 964.20-51.90L964.20-51.90L956.70-51.45L956.70-51.45Q956.70-51.90 956.85-53.55L956.85-53.55L956.85-53.55Q957.00-55.20 957.00-57.30L957.00-57.30L957.00-57.30Q957.00-67.80 940.20-67.80L940.20-67.80L940.20-67.80Q928.50-67.80 921.75-60.07L921.75-60.07L921.75-60.07Q915.00-52.35 915.00-38.85L915.00-38.85L915.00-38.85Q915.00-23.85 922.13-15L922.13-15L922.13-15Q929.25-6.15 941.25-6.15L941.25-6.15L941.25-6.15Q949.20-6.15 953.93-10.42L953.93-10.42L953.93-10.42Q958.65-14.70 960.75-23.85L960.75-23.85L968.25-24.45L968.25-24.45Q967.80-22.65 966.68-16.35L966.68-16.35L966.68-16.35Q965.55-10.05 965.10-4.50L965.10-4.50L964.20-3.30L964.20-3.30Q963.30-3 959.93-1.88L959.93-1.88L959.93-1.88Q956.55-0.75 950.85 0.30L950.85 0.30L950.85 0.30Q945.15 1.35 938.55 1.35L938.55 1.35ZM1016.25 1.35L1016.25 1.35Q1006.05 1.35 998.18-3.15L998.18-3.15L998.18-3.15Q990.30-7.65 986.03-15.90L986.03-15.90L986.03-15.90Q981.75-24.15 981.75-34.95L981.75-34.95L981.75-34.95Q981.75-46.65 987.08-56.02L987.08-56.02L987.08-56.02Q992.40-65.40 1001.63-70.72L1001.63-70.72L1001.63-70.72Q1010.85-76.05 1022.25-76.05L1022.25-76.05L1022.25-76.05Q1032.60-76.05 1040.55-71.55L1040.55-71.55L1040.55-71.55Q1048.50-67.05 1052.85-58.88L1052.85-58.88L1052.85-58.88Q1057.20-50.70 1057.20-39.90L1057.20-39.90L1057.20-39.90Q1057.20-28.20 1051.88-18.82L1051.88-18.82L1051.88-18.82Q1046.55-9.45 1037.18-4.05L1037.18-4.05L1037.18-4.05Q1027.80 1.35 1016.25 1.35L1016.25 1.35ZM1019.85-5.85L1019.85-5.85Q1030.80-5.85 1037.55-13.72L1037.55-13.72L1037.55-13.72Q1044.30-21.60 1044.30-34.65L1044.30-34.65L1044.30-34.65Q1044.30-44.55 1041.08-52.05L1041.08-52.05L1041.08-52.05Q1037.85-59.55 1031.93-63.60L1031.93-63.60L1031.93-63.60Q1026.00-67.65 1018.20-67.65L1018.20-67.65L1018.20-67.65Q1007.55-67.65 1001.03-59.85L1001.03-59.85L1001.03-59.85Q994.50-52.05 994.50-39L994.50-39L994.50-39Q994.50-29.10 997.65-21.60L997.65-21.60L997.65-21.60Q1000.80-14.10 1006.58-9.97L1006.58-9.97L1006.58-9.97Q1012.35-5.85 1019.85-5.85L1019.85-5.85ZM1072.50 1.20L1073.40-5.10L1073.40-5.10Q1078.20-5.85 1079.93-7.88L1079.93-7.88L1079.93-7.88Q1081.65-9.90 1081.65-15L1081.65-15L1081.80-62.55L1081.80-62.55Q1081.80-66.30 1080.90-67.58L1080.90-67.58L1080.90-67.58Q1080.00-68.85 1077.30-68.85L1077.30-68.85L1073.25-68.70L1072.80-69.30L1073.70-75L1073.70-75Q1074.45-75 1078.20-74.85L1078.20-74.85L1078.20-74.85Q1081.95-74.70 1088.25-74.70L1088.25-74.70L1088.25-74.70Q1091.55-74.70 1096.43-75.15L1096.43-75.15L1096.43-75.15Q1101.30-75.60 1102.80-75.75L1102.80-75.75L1102.20-69.45L1102.20-69.45Q1098.15-69 1096.50-68.02L1096.50-68.02L1096.50-68.02Q1094.85-67.05 1094.55-65.55L1094.55-65.55L1094.55-65.55Q1094.25-64.05 1093.80-59.40L1093.80-59.40L1093.80-59.40Q1092.30-39.30 1092.30-14.85L1092.30-14.85L1092.30-14.85Q1092.30-11.10 1092.98-9.38L1092.98-9.38L1092.98-9.38Q1093.65-7.65 1095.68-7.05L1095.68-7.05L1095.68-7.05Q1097.70-6.45 1102.05-6.45L1102.05-6.45L1102.05-6.45Q1109.25-6.45 1112.63-7.65L1112.63-7.65L1112.63-7.65Q1116.00-8.85 1117.73-12.38L1117.73-12.38L1117.73-12.38Q1119.45-15.90 1120.80-23.55L1120.80-23.55L1127.40-24.30L1127.85-23.40L1127.85-23.40Q1127.55-21.45 1126.43-14.47L1126.43-14.47L1126.43-14.47Q1125.30-7.50 1124.40 0.15L1124.40 0.15L1123.65 1.05L1123.65 1.05Q1120.20 0.90 1109.03 0.45L1109.03 0.45L1109.03 0.45Q1097.85 0 1090.20 0L1090.20 0L1090.20 0Q1084.20 0 1079.03 0.53L1079.03 0.53L1079.03 0.53Q1073.85 1.05 1072.50 1.20L1072.50 1.20ZM1172.25 1.05L1171.80 0.30L1172.25-5.10L1172.25-5.10Q1178.55-5.55 1180.73-6.45L1180.73-6.45L1180.73-6.45Q1182.90-7.35 1182.90-9.45L1182.90-9.45L1182.90-9.45Q1182.90-11.85 1181.85-14.55L1181.85-14.55L1178.25-26.10L1178.25-26.10Q1175.25-26.25 1165.80-26.25L1165.80-26.25L1165.80-26.25Q1161.45-26.25 1152.90-25.35L1152.90-25.35L1148.70-14.25L1148.70-14.25Q1147.65-10.80 1147.65-10.05L1147.65-10.05L1147.65-10.05Q1147.65-7.65 1149.30-6.60L1149.30-6.60L1149.30-6.60Q1150.95-5.55 1154.70-5.55L1154.70-5.55L1161.15-5.55L1161.60-4.95L1160.70 0.75L1160.70 0.75Q1159.20 0.60 1153.88 0.30L1153.88 0.30L1153.88 0.30Q1148.55 0 1143.45 0L1143.45 0L1143.45 0Q1138.65 0 1134.83 0.15L1134.83 0.15L1134.83 0.15Q1131 0.30 1129.65 0.30L1129.65 0.30L1130.55-5.85L1130.55-5.85Q1133.85-6.30 1135.80-8.17L1135.80-8.17L1135.80-8.17Q1137.75-10.05 1139.70-14.55L1139.70-14.55L1163.25-74.10L1173.90-76.05L1174.95-75.90L1174.95-75.90Q1174.95-75.30 1181.78-52.20L1181.78-52.20L1181.78-52.20Q1188.60-29.10 1194-13.95L1194-13.95L1194-13.95Q1195.50-9.60 1197.83-7.88L1197.83-7.88L1197.83-7.88Q1200.15-6.15 1205.25-5.70L1205.25-5.70L1205.55-5.10L1204.80 0.30L1204.80 0.30Q1203.30 0.30 1199.25 0.15L1199.25 0.15L1199.25 0.15Q1195.20 0 1191.15 0L1191.15 0L1191.15 0Q1185 0 1179.45 0.45L1179.45 0.45L1179.45 0.45Q1173.90 0.90 1172.25 1.05L1172.25 1.05ZM1155.30-32.40L1165.50-32.40L1165.50-32.40Q1170.75-32.40 1176.45-33L1176.45-33L1167.30-62.10L1166.25-62.10L1155.30-32.40ZM1234.80 1.35L1234.80 1.35Q1229.55 1.35 1225.13 0.45L1225.13 0.45L1225.13 0.45Q1220.70-0.45 1218.08-1.43L1218.08-1.43L1218.08-1.43Q1215.45-2.40 1214.85-2.70L1214.85-2.70L1214.10-4.05L1214.10-4.05Q1214.25-4.80 1214.63-7.42L1214.63-7.42L1214.63-7.42Q1215-10.05 1215.38-14.77L1215.38-14.77L1215.38-14.77Q1215.75-19.50 1215.75-24.30L1215.75-24.30L1222.50-24.90L1222.50-24.90Q1222.50-16.80 1223.78-12.82L1223.78-12.82L1223.78-12.82Q1225.05-8.85 1228.20-7.35L1228.20-7.35L1228.20-7.35Q1231.35-5.85 1237.80-5.85L1237.80-5.85L1237.80-5.85Q1245-5.85 1249.43-9L1249.43-9L1249.43-9Q1253.85-12.15 1253.85-17.40L1253.85-17.40L1253.85-17.40Q1253.85-20.85 1251.38-23.47L1251.38-23.47L1251.38-23.47Q1248.90-26.10 1245.68-27.90L1245.68-27.90L1245.68-27.90Q1242.45-29.70 1235.40-33.15L1235.40-33.15L1235.40-33.15Q1225.80-37.80 1220.63-42.30L1220.63-42.30L1220.63-42.30Q1215.45-46.80 1215.45-53.85L1215.45-53.85L1215.45-53.85Q1215.45-60.15 1219.28-65.25L1219.28-65.25L1219.28-65.25Q1223.10-70.35 1229.85-73.20L1229.85-73.20L1229.85-73.20Q1236.60-76.05 1244.85-76.05L1244.85-76.05L1244.85-76.05Q1249.80-76.05 1254.15-75.45L1254.15-75.45L1254.15-75.45Q1258.50-74.85 1261.05-74.17L1261.05-74.17L1261.05-74.17Q1263.60-73.50 1264.20-73.20L1264.20-73.20L1264.80-72.15L1264.80-72.15Q1264.50-70.50 1263.45-64.72L1263.45-64.72L1263.45-64.72Q1262.40-58.95 1261.95-52.35L1261.95-52.35L1256.10-51.75L1255.20-52.35L1255.20-52.35Q1255.20-52.80 1255.35-54.23L1255.35-54.23L1255.35-54.23Q1255.50-55.65 1255.50-57.75L1255.50-57.75L1255.50-57.75Q1255.50-63.60 1252.43-65.92L1252.43-65.92L1252.43-65.92Q1249.35-68.25 1241.55-68.25L1241.55-68.25L1241.55-68.25Q1235.25-68.25 1231.13-65.33L1231.13-65.33L1231.13-65.33Q1227-62.40 1227-57.90L1227-57.90L1227-57.90Q1227-53.40 1231.13-50.25L1231.13-50.25L1231.13-50.25Q1235.25-47.10 1243.65-43.05L1243.65-43.05L1243.65-43.05Q1251-39.60 1255.43-37.05L1255.43-37.05L1255.43-37.05Q1259.85-34.50 1263-30.60L1263-30.60L1263-30.60Q1266.15-26.70 1266.15-21.60L1266.15-21.60L1266.15-21.60Q1266.15-14.85 1262.18-9.67L1262.18-9.67L1262.18-9.67Q1258.20-4.50 1251.08-1.57L1251.08-1.57L1251.08-1.57Q1243.95 1.35 1234.80 1.35L1234.80 1.35Z" fill="#ccc"></path></g></g><style>text {
  font-size: 64px;
  font-family: Arial Black;
  dominant-baseline: central;
  text-anchor: middle;
}</style></svg>